<svg width="32" height="32" viewBox="0 0 32 32" fill="none" xmlns="http://www.w3.org/2000/svg">
<path d="M20.4123 31.2331C18.4424 32.6513 15.9211 30.8391 15.9998 28.0025C15.9998 26.663 16.6302 25.4024 17.5757 24.6932L24.5095 20.0444L17.6545 15.4744C16.709 14.844 16.0786 13.5046 16.0786 12.1651C16.0786 9.24971 18.6 7.51626 20.5699 8.93454L27.0309 13.6621C27.7401 14.2137 28.2128 15.0804 28.2128 15.9471V24.2205C28.2128 25.166 27.7401 25.9539 27.0309 26.5055L20.4123 31.2331Z" fill="#37ABA7"/>
<path d="M11.5877 22.8024C13.5575 24.2207 16.0789 22.4084 16.0001 19.5719C16.0001 18.2324 15.3697 16.9717 14.4242 16.2626L7.4904 11.6137L14.3454 7.04373C15.2909 6.41338 15.9213 5.07389 15.9213 3.7344C15.9213 0.819047 13.3999 -0.914407 11.4301 0.503874L4.96901 5.23148C4.25987 5.70424 3.78711 6.57096 3.78711 7.43769V15.711C3.78711 16.6565 4.25987 17.4445 4.96901 17.996L11.5877 22.8024Z" fill="#37ABA7"/>
</svg>
