<svg width="19" height="19" viewBox="0 0 19 19" fill="none" xmlns="http://www.w3.org/2000/svg">
<g clip-path="url(#clip0_118_18062)">
<path d="M3.36458 0H15.6354C17.4958 0 19 1.50417 19 3.36458V15.1604C19 17.0208 17.4958 18.525 15.6354 18.525H3.36458C1.50417 18.525 0 17.0208 0 15.1604V3.36458C0 1.50417 1.50417 0 3.36458 0Z" fill="#38ABA7" fill-opacity="0.25"/>
<g clip-path="url(#clip1_118_18062)">
<path d="M7.25053 15.9999C8.49228 15.9999 9.50008 14.9546 9.50008 13.6666V11.3333H7.25053C6.00877 11.3333 5.00098 12.3786 5.00098 13.6666C5.00098 14.9546 6.00877 15.9999 7.25053 15.9999Z" fill="#0ACF83"/>
<path d="M5.00098 8.99984C5.00098 7.71184 6.00877 6.6665 7.25053 6.6665H9.50008V11.3332H7.25053C6.00877 11.3332 5.00098 10.2878 5.00098 8.99984Z" fill="#A259FF"/>
<path d="M5.00098 4.33333C5.00098 3.04533 6.00877 2 7.25053 2H9.50008V6.66667H7.25053C6.00877 6.66667 5.00098 5.62133 5.00098 4.33333Z" fill="#F24E1E"/>
<path d="M9.5 2H11.7495C12.9913 2 13.9991 3.04533 13.9991 4.33333C13.9991 5.62133 12.9913 6.66667 11.7495 6.66667H9.5V2Z" fill="#FF7262"/>
<path d="M13.9991 8.99984C13.9991 10.2878 12.9913 11.3332 11.7495 11.3332C10.5078 11.3332 9.5 10.2878 9.5 8.99984C9.5 7.71184 10.5078 6.6665 11.7495 6.6665C12.9913 6.6665 13.9991 7.71184 13.9991 8.99984Z" fill="#1ABCFE"/>
</g>
</g>
<defs>
<clipPath id="clip0_118_18062">
<rect width="19" height="18.525" fill="white"/>
</clipPath>
<clipPath id="clip1_118_18062">
<rect width="9" height="14" fill="white" transform="translate(5 2)"/>
</clipPath>
</defs>
</svg>
