<svg width="19" height="19" viewBox="0 0 19 19" fill="none" xmlns="http://www.w3.org/2000/svg">
<g clip-path="url(#clip0_118_18052)">
<path d="M3.36458 0H15.6354C17.4958 0 19 1.50417 19 3.36458V15.1604C19 17.0208 17.4958 18.525 15.6354 18.525H3.36458C1.50417 18.525 0 17.0208 0 15.1604V3.36458C0 1.50417 1.50417 0 3.36458 0Z" fill="#001E36"/>
<path d="M4.27539 12.9913V4.84503C4.27539 4.78962 4.29914 4.75795 4.35456 4.75795C4.48914 4.75795 4.61581 4.75795 4.79789 4.75003C4.98789 4.74212 5.18581 4.74212 5.39956 4.7342C5.61331 4.72628 5.84289 4.72628 6.08831 4.71837C6.33372 4.71045 6.57122 4.71045 6.80872 4.71045C7.45789 4.71045 7.99622 4.78962 8.43956 4.95587C8.83539 5.09045 9.19956 5.31212 9.50039 5.60503C9.75372 5.85837 9.95164 6.16712 10.0783 6.50753C10.1971 6.84003 10.2604 7.18045 10.2604 7.5367C10.2604 8.21753 10.1021 8.77962 9.78539 9.22295C9.46872 9.66628 9.02539 9.99878 8.51081 10.1888C7.97247 10.3867 7.37872 10.458 6.72956 10.458C6.53956 10.458 6.41289 10.4579 6.33372 10.45C6.25456 10.4421 6.14372 10.4421 5.99331 10.4421V12.9834C6.00122 13.0388 5.96164 13.0863 5.90622 13.0942C5.89831 13.0942 5.89039 13.0942 5.87456 13.0942H4.37039C4.30706 13.0942 4.27539 13.0625 4.27539 12.9913ZM6.00122 6.28587V8.94587C6.11206 8.95378 6.21497 8.9617 6.30997 8.9617H6.72956C7.03831 8.9617 7.34706 8.9142 7.63997 8.8192C7.89331 8.74795 8.11497 8.59753 8.28914 8.39962C8.45539 8.2017 8.53456 7.93253 8.53456 7.5842C8.54247 7.33878 8.47914 7.09337 8.35247 6.87962C8.21789 6.67378 8.02789 6.51545 7.79831 6.42837C7.50539 6.30962 7.18872 6.26212 6.86414 6.27003C6.65831 6.27003 6.47622 6.27003 6.32581 6.27795C6.16747 6.27003 6.05664 6.27795 6.00122 6.28587Z" fill="#31A8FF"/>
<path d="M15.2004 8.46299C14.9629 8.33633 14.7095 8.24924 14.4404 8.19383C14.1475 8.13049 13.8545 8.09091 13.5537 8.09091C13.3954 8.08299 13.2291 8.10674 13.0787 8.14633C12.9758 8.17008 12.8887 8.22549 12.8333 8.30466C12.7937 8.36799 12.77 8.44716 12.77 8.51841C12.77 8.58966 12.8016 8.66091 12.8491 8.72424C12.9204 8.81133 13.0154 8.88258 13.1183 8.93799C13.3004 9.03299 13.4904 9.12008 13.6804 9.19924C14.1079 9.34174 14.5195 9.53966 14.8995 9.77716C15.1608 9.94341 15.3745 10.1651 15.525 10.4342C15.6516 10.6876 15.715 10.9647 15.707 11.2497C15.715 11.6217 15.6041 11.9938 15.3983 12.3026C15.1766 12.6192 14.8679 12.8647 14.5116 13.0072C14.1237 13.1734 13.6487 13.2605 13.0787 13.2605C12.7145 13.2605 12.3583 13.2288 12.002 13.1576C11.725 13.1101 11.4479 13.023 11.1945 12.9042C11.1391 12.8726 11.0995 12.8172 11.1075 12.7538V11.3763C11.1075 11.3526 11.1154 11.3209 11.1391 11.3051C11.1629 11.2892 11.1866 11.2972 11.2104 11.313C11.5191 11.4951 11.8437 11.6217 12.192 11.7009C12.4929 11.7801 12.8095 11.8197 13.1262 11.8197C13.427 11.8197 13.6408 11.7801 13.7833 11.7088C13.91 11.6534 13.997 11.5188 13.997 11.3763C13.997 11.2655 13.9337 11.1626 13.807 11.0597C13.6804 10.9567 13.4191 10.838 13.0312 10.6876C12.6275 10.5451 12.2554 10.3551 11.907 10.1176C11.6616 9.94341 11.4558 9.71383 11.3054 9.44466C11.1787 9.19133 11.1154 8.91424 11.1233 8.63716C11.1233 8.29674 11.2183 7.97216 11.3925 7.67924C11.5904 7.36258 11.8833 7.10924 12.2237 6.95091C12.5958 6.76091 13.0629 6.67383 13.625 6.67383C13.9495 6.67383 14.282 6.69758 14.6066 6.74508C14.8441 6.77674 15.0737 6.84008 15.2875 6.92716C15.3191 6.93508 15.3508 6.96674 15.3666 6.99841C15.3745 7.03008 15.3825 7.06174 15.3825 7.09341V8.38383C15.3825 8.41549 15.3666 8.44716 15.3429 8.46299C15.2716 8.47883 15.232 8.47883 15.2004 8.46299Z" fill="#31A8FF"/>
</g>
<defs>
<clipPath id="clip0_118_18052">
<rect width="19" height="18.525" fill="white"/>
</clipPath>
</defs>
</svg>
