<svg width="256" height="256" viewBox="0 0 256 256" fill="none" xmlns="http://www.w3.org/2000/svg">
<rect width="256" height="256" fill="white"/>
<path d="M149.461 202.764C139.88 209.662 127.615 200.847 127.999 187.05C127.999 180.534 131.065 174.402 135.664 170.953L169.391 148.34L136.047 126.111C131.448 123.045 128.382 116.53 128.382 110.014C128.382 95.8336 140.646 87.4018 150.228 94.3005L181.655 117.296C185.104 119.979 187.404 124.195 187.404 128.411V168.653C187.404 173.252 185.104 177.085 181.655 179.768L149.461 202.764Z" fill="#37ABA7"/>
<path d="M106.537 161.754C116.118 168.653 128.383 159.837 127.999 146.04C127.999 139.525 124.933 133.392 120.334 129.943L86.607 107.331L119.951 85.1015C124.55 82.0354 127.616 75.5199 127.616 69.0045C127.616 54.8238 115.352 46.392 105.77 53.2908L74.3427 76.2865C70.8933 78.586 68.5938 82.8019 68.5938 87.0178V127.26C68.5938 131.859 70.8933 135.692 74.3427 138.375L106.537 161.754Z" fill="#37ABA7"/>
</svg>
