<svg width="19" height="19" viewBox="0 0 19 19" fill="none" xmlns="http://www.w3.org/2000/svg">
<g clip-path="url(#clip0_118_18084)">
<path d="M3.36458 0H15.6354C17.4958 0 19 1.50417 19 3.36458V15.1604C19 17.0208 17.4958 18.525 15.6354 18.525H3.36458C1.50417 18.525 0 17.0208 0 15.1604V3.36458C0 1.50417 1.50417 0 3.36458 0Z" fill="#146EF5"/>
<path fill-rule="evenodd" clip-rule="evenodd" d="M16 5L12.1709 13H8.57438L10.1768 9.68445H10.1049C8.78294 11.5186 6.81047 12.726 4 13V9.73036C4 9.73036 5.79792 9.61686 6.85487 8.42922H4V5.00006H7.20857V7.82049L7.28058 7.82018L8.59171 5.00006H11.0183V7.80261L11.0903 7.80249L12.4506 5H16Z" fill="white"/>
</g>
<defs>
<clipPath id="clip0_118_18084">
<rect width="19" height="18.525" fill="white"/>
</clipPath>
</defs>
</svg>
